<?xml version="1.0" encoding="utf-8"?>
<!-- Generator: Adobe Illustrator 21.0.2, SVG Export Plug-In . SVG Version: 6.00 Build 0)  -->
<svg version="1.1" id="圖層_1" xmlns="http://www.w3.org/2000/svg" xmlns:xlink="http://www.w3.org/1999/xlink" x="0px" y="0px"
	 viewBox="0 0 120 40" style="enable-background:new 0 0 120 40;" xml:space="preserve">
<style type="text/css">
	.st0{fill:#343A40;}
</style>
<g>
	<path class="st0" d="M9.1,15.3h-3V28H4.3V15.3H3.8c-0.6,1.1-1.4,2.2-2.3,3.2l-1.3-1.3c1.7-1.9,3-4.2,4-6.9l1.9,0.3
		c-0.4,1-0.8,2-1.3,2.9h4.4V15.3z M17.9,15.3h-2.5v10.7c0,0.5-0.1,0.9-0.4,1.2c-0.3,0.3-0.5,0.5-0.8,0.6C13.9,28,13.4,28,12.6,28
		c-0.6,0-1.1,0-1.5-0.1l-0.7-1.8c1,0,1.8,0.1,2.7,0.1c0.3,0,0.5-0.2,0.5-0.5V15.3h-1.7c-0.7,1.3-1.5,2.4-2.4,3.3l-1.3-1.2
		c1.5-1.6,2.8-4,4-7.1l1.8,0.3c-0.3,1-0.7,1.9-1.2,2.9h5.1V15.3z"/>
	<path class="st0" d="M37.2,28h-1.9v-0.9H21.5V13.6h1.9v11.7h5.1V10.4h1.8v14.9h5.1V13.6h1.9V28z"/>
	<path class="st0" d="M51.4,23.6H49c-0.5,0.7-0.9,1.3-1.3,1.7c1.1,0.4,2,0.8,2.8,1.2l-1,1.3c-1.3-0.6-2.4-1.1-3.1-1.3
		c-1.8,0.9-3.5,1.5-5,1.7l-0.7-1.5c1.4-0.2,2.6-0.5,3.7-0.9c-1-0.4-1.9-0.6-2.6-0.8c0.6-0.7,1-1.1,1.2-1.3h-2.1v-1.4H44l0.7-1.2
		h-3.1v-3.3h3.5v-0.9h-3.6v-2.2h-0.9v-1.3h0.9v-2.2h3.6v-0.8h1.7v0.8h3.5v2.2h1v1.3h-1v2.2h-3.5v0.9h3.6v3.3h-3.7L46,22.3h1.8
		c0.1-0.2,0.2-0.4,0.3-0.7l1.6,0.4c0,0.1,0,0.2-0.1,0.3h1.8V23.6z M45.2,13.4v-0.9h-2v0.9H45.2z M45.2,15.6v-1h-2v1H45.2z
		 M45.2,19.8V19h-1.9v0.8H45.2z M47,23.6h-2c0,0-0.2,0.2-0.5,0.6l1.6,0.5C46.5,24.3,46.8,24,47,23.6z M48.7,13.4v-0.9h-1.9v0.9H48.7
		z M48.7,15.6v-0.9h-1.9v0.9H48.7z M48.8,19.8V19h-2v0.8H48.8z M58.5,26.7l-0.9,1.5c-1.4-1.1-2.4-2-3-3c-0.8,1.1-1.7,2.1-2.8,2.9
		l-1.2-1.3c1.3-1,2.2-2.1,2.9-3.2c-0.7-1.2-1.2-2.5-1.5-4l1.5-0.8c0.3,1.2,0.6,2.2,0.8,2.8c0.5-1.6,0.8-3.8,0.9-6.6h-1.5
		c-0.6,1.9-1.3,3.3-1.9,4.3l-1.2-1.4c1.1-2,1.9-4.5,2.3-7.5l1.7,0.2c-0.1,0.6-0.3,1.5-0.5,2.7h3.9v1.7h-1.1
		c-0.1,3.7-0.7,6.6-1.5,8.7C56.4,24.8,57.4,25.8,58.5,26.7z"/>
	<path class="st0" d="M66.5,10.7c-0.2,0.7-0.6,1.6-1,2.6l-0.7,1.5V28H63V17.9c-0.4,0.6-0.9,1.2-1.5,1.8l-0.8-1.9
		c1.6-1.9,2.9-4.4,4-7.5L66.5,10.7z M78.5,27.5h-13v-1.8h3.3c-0.3-2.8-0.8-5.9-1.5-9.3l1.3-0.8h-2.6v-1.8h5.3
		c-0.2-0.9-0.6-1.9-1.1-3l1.8-0.4c0.4,1.1,0.8,2.2,1.2,3.4H78v1.8h-2.7l1.4,0.9c-0.3,3.1-0.8,6.2-1.5,9.3h3.2V27.5z M75,15.5h-6.1
		c0.6,2.4,1.1,5.8,1.7,10.2h2.8C74.2,22,74.7,18.6,75,15.5z"/>
	<path class="st0" d="M88.2,13.6L87.1,15c-0.6-0.7-1.4-1.5-2.4-2.3c-0.6,1-1.1,1.7-1.5,2.3h3.6v1.6h-1.3v1.6h2.4v1.6h-2.4v5.2
		c0.6-0.2,1.4-0.4,2.4-0.7v1.8c-2.1,0.6-4.3,1.2-6.6,1.6L80.7,26c0.9-0.1,1.8-0.3,2.9-0.5v-5.7h-2.4v-1.6h2.4v-1.6h-1.3v-0.8
		c-0.3,0.3-0.5,0.5-0.7,0.7l-0.9-1.5c1.3-1.2,2.4-2.8,3.3-4.9l1.6,0.4c0,0.1-0.1,0.2-0.1,0.3s-0.1,0.2-0.1,0.3
		C86.7,12.1,87.6,12.9,88.2,13.6z M83.2,24.8l-1.3,0.4c-0.1-1.5-0.4-2.9-0.7-4.2l1.3-0.5C82.8,21.9,83,23.3,83.2,24.8z M87.9,20.9
		c-0.1,1.1-0.3,2.2-0.7,3.3l-1.3-0.4c0.3-1.1,0.6-2.2,0.7-3.4L87.9,20.9z M92.4,26.2c-1.5,1-2.7,1.6-3.8,2l-1-1.5
		c1-0.3,2.2-0.9,3.6-1.8L92.4,26.2z M98.5,24.7H88.2v-1.4H89v-9.2h2.3c0.1-0.3,0.3-0.6,0.4-1h-3.4v-1.5h3.9l0.5-1.3l1.7,0.3l-0.3,1
		H98v1.5h-4.4c-0.3,0.6-0.4,1-0.4,1h4v9.2h1.2V24.7z M95.5,16.5v-1h-4.7v1H95.5z M95.5,18.7v-1h-4.7v1H95.5z M95.5,20.9v-1h-4.7v1
		H95.5z M95.5,23.2v-1.1h-4.7v1.1H95.5z M98.6,26.7l-1,1.5c-1-0.7-2.3-1.3-3.9-1.8l1.1-1.4C96.2,25.4,97.5,26,98.6,26.7z"/>
	<path class="st0" d="M119,24c-0.7,2.7-1.8,4-3.3,4c-1,0-2.1-0.6-3.3-1.9s-2.1-3.1-2.6-5.5h-5.4v5.2c1.7-0.4,3.5-0.8,5.4-1.4
		l0.2,1.9c-2.5,0.7-5,1.3-7.4,1.8l-0.6-1.8c0.4-0.1,0.6-0.4,0.6-0.8V10.9h14.7v5.6h-6c0,0.8,0,1.6,0.1,2.3h7.1v1.8h-6.8
		c0.4,1.6,1,3,1.9,4s1.6,1.6,2.1,1.6c0.2,0,0.4,0,0.5-0.1c0.1-0.1,0.3-0.4,0.6-1c0.3-0.6,0.5-1.2,0.6-2L119,24z M115.2,14.7v-2.1
		h-10.9v2.1H115.2z M109.4,18.8c-0.1-0.7-0.2-1.5-0.2-2.3h-4.9v2.3H109.4z"/>
</g>
</svg>
